Encode_Cond_Lt_sup.ufo
<glyph name="ampersand" format="1">
  <advance width="424.212751218"/>
  <unicode hex="0026"/>
  <outline>
    <contour>
      <point x="424.212751218" y="18.9279992504" type="line"/>
      <point x="202.637141223" y="227.319866565" type="line" smooth="yes"/>
      <point x="140.515142297" y="285.731673434"/>
      <point x="123.84453352" y="320.451032741"/>
      <point x="123.84453352" y="369.198743762" type="curve" smooth="yes"/>
      <point x="123.84453352" y="438.988982354"/>
      <point x="161.135635256" y="474.876469616"/>
      <point x="238.739202828" y="474.876469616" type="curve" smooth="yes"/>
      <point x="257.733783689" y="474.876469616"/>
      <point x="276.641524534" y="473.313557659"/>
      <point x="301.008829655" y="466.834773795" type="curve"/>
      <point x="301.008829655" y="498.887988739" type="line"/>
      <point x="281.171900759" y="503.619988632"/>
      <point x="259.9408558" y="506.394292567"/>
      <point x="238.85476686" y="506.394292567" type="curve" smooth="yes"/>
      <point x="140.714874463" y="506.394292567"/>
      <point x="90.4398561993" y="457.597909723"/>
      <point x="90.4398561993" y="368.522743777" type="curve" smooth="yes"/>
      <point x="90.4398561993" y="310.343481067"/>
      <point x="112.425741205" y="268.15026603"/>
      <point x="182.623860411" y="201.631867467" type="curve" smooth="yes"/>
      <point x="404.199470406" y="-6.75999984741" type="line"/>
    </contour>
    <contour>
      <point x="354.275820033" y="170.595355917" type="curve" smooth="yes"/>
      <point x="354.275820033" y="198.565531301"/>
      <point x="350.935819881" y="231.943706563"/>
      <point x="343.094167519" y="262.012185898" type="curve"/>
      <point x="312.624014282" y="262.012185898" type="line"/>
      <point x="321.075550673" y="231.943706563"/>
      <point x="325.025434855" y="198.495227305"/>
      <point x="325.025434855" y="169.849051937" type="curve" smooth="yes"/>
      <point x="325.025434855" y="65.4908782767"/>
      <point x="274.780476548" y="24.0277431714"/>
      <point x="196.770764937" y="24.0277431714" type="curve" smooth="yes"/>
      <point x="121.520561436" y="24.0277431714"/>
      <point x="77.7238073992" y="68.7464942574"/>
      <point x="77.7238073992" y="140.12668478" type="curve" smooth="yes"/>
      <point x="77.7238073992" y="190.718523741"/>
      <point x="99.8833724383" y="228.958490963"/>
      <point x="142.024154421" y="252.986234457" type="curve"/>
      <point x="125.844525787" y="275.359129826" type="line"/>
      <point x="74.1473354167" y="247.697210399"/>
      <point x="44.435362081" y="199.236123485"/>
      <point x="44.435362081" y="136.622300914" type="curve" smooth="yes"/>
      <point x="44.435362081" y="50.0239988708"/>
      <point x="101.796524689" y="-6.08399986267"/>
      <point x="194.824212876" y="-6.08399986267" type="curve" smooth="yes"/>
      <point x="291.889293233" y="-6.08399986267"/>
      <point x="354.275820033" y="52.2737267375"/>
    </contour>
  </outline>
</glyph>
<glyph name="zero" format="1">
  <advance width="339.811615397"/>
  <unicode hex="0030"/>
  <outline>
    <contour>
      <point x="304.40828175" y="250.119994354" type="curve" smooth="yes"/>
      <point x="304.40828175" y="440.162518111"/>
      <point x="253.204075435" y="506.394292567"/>
      <point x="169.905807698" y="506.394292567" type="curve" smooth="yes"/>
      <point x="86.6075399618" y="506.394292567"/>
      <point x="35.4033336467" y="440.162518111"/>
      <point x="35.4033336467" y="250.119994354" type="curve" smooth="yes"/>
      <point x="35.4033336467" y="60.0774705975"/>
      <point x="87.2174239909" y="-6.15430385851"/>
      <point x="169.905807698" y="-6.15430385851" type="curve" smooth="yes"/>
      <point x="252.594191406" y="-6.15430385851"/>
      <point x="304.40828175" y="60.0774705975"/>
    </contour>
    <contour>
      <point x="68.4593149594" y="251.331386332" type="curve" smooth="yes"/>
      <point x="68.4593149594" y="423.86280668"/>
      <point x="108.218676827" y="475.017077608"/>
      <point x="169.905807698" y="475.017077608" type="curve" smooth="yes"/>
      <point x="231.651054572" y="475.017077608"/>
      <point x="271.352300438" y="423.86280668"/>
      <point x="271.352300438" y="248.908602376" type="curve" smooth="yes"/>
      <point x="271.352300438" y="76.3771820284"/>
      <point x="231.651054572" y="25.2229111006"/>
      <point x="169.905807698" y="25.2229111006" type="curve" smooth="yes"/>
      <point x="108.218676827" y="25.2229111006"/>
      <point x="68.4593149594" y="76.3771820284"/>
    </contour>
  </outline>
</glyph>
<glyph name="one" format="1">
  <advance width="339.811615397"/>
  <unicode hex="0031"/>
  <outline>
    <contour>
      <point x="205.660509236" y="0.0" type="line"/>
      <point x="205.660509236" y="501.662292674" type="line"/>
      <point x="187.098792517" y="501.662292674" type="line"/>
      <point x="65.7545829976" y="408.893462724" type="line"/>
      <point x="65.7545829976" y="373.757687888" type="line"/>
      <point x="187.098792517" y="466.526517838" type="line"/>
      <point x="173.533715975" y="470.744757588" type="line"/>
      <point x="173.533715975" y="0.0" type="line"/>
    </contour>
    <contour>
      <point x="304.407613779" y="0.0" type="line"/>
      <point x="304.407613779" y="31.4042549327" type="line"/>
      <point x="71.4466112793" y="31.4042549327" type="line"/>
      <point x="71.4466112793" y="0.0" type="line"/>
    </contour>
  </outline>
</glyph>
<glyph name="two" format="1">
  <advance width="339.811615397"/>
  <unicode hex="0032"/>
  <outline>
    <contour>
      <point x="284.484512837" y="0.0" type="line"/>
      <point x="284.484512837" y="31.4042549327" type="line"/>
      <point x="75.4893472143" y="31.4042549327" type="line"/>
      <point x="81.5594634903" y="20.8316152616" type="line"/>
      <point x="202.81416111" y="209.365307331" type="line" smooth="yes"/>
      <point x="251.287583331" y="284.812313687"/>
      <point x="269.933468184" y="331.342744616"/>
      <point x="270.543352213" y="381.480311505" type="curve" smooth="yes"/>
      <point x="271.763120272" y="470.39864541"/>
      <point x="218.525521879" y="506.394292567"/>
      <point x="135.77902217" y="506.394292567" type="curve" smooth="yes"/>
      <point x="100.200672548" y="506.394292567"/>
      <point x="63.6343509033" y="499.63429272"/>
      <point x="40.3411898519" y="488.282900971" type="curve"/>
      <point x="40.3411898519" y="456.229686027" type="line"/>
      <point x="69.0070751628" y="468.862773749"/>
      <point x="97.5861204569" y="474.876469616"/>
      <point x="133.919310126" y="474.876469616" type="curve" smooth="yes"/>
      <point x="200.021921161" y="474.876469616"/>
      <point x="237.922906926" y="450.497206143"/>
      <point x="237.922906926" y="380.285143576" type="curve" smooth="yes"/>
      <point x="237.922906926" y="335.398744525"/>
      <point x="218.841486047" y="291.23160948"/>
      <point x="176.554412105" y="224.853818909" type="curve" smooth="yes"/>
      <point x="45.8014220988" y="19.8473593199" type="line"/>
      <point x="45.8014220988" y="0.0" type="line"/>
    </contour>
  </outline>
</glyph>
<glyph name="three" format="1">
  <advance width="339.811615397"/>
  <unicode hex="0033"/>
  <outline>
    <contour>
      <point x="297.843845477" y="130.240861019" type="curve" smooth="yes"/>
      <point x="297.843845477" y="203.616603399"/>
      <point x="253.959583453" y="251.120474345"/>
      <point x="170.344015606" y="263.218170074" type="curve"/>
      <point x="169.734131577" y="256.133690221" type="line"/>
      <point x="241.819350901" y="270.724473902"/>
      <point x="281.928076747" y="319.439736826"/>
      <point x="281.928076747" y="383.378519393" type="curve" smooth="yes"/>
      <point x="281.928076747" y="462.638165573"/>
      <point x="233.163406549" y="506.394292567"/>
      <point x="142.139718453" y="506.394292567" type="curve" smooth="yes"/>
      <point x="108.100440912" y="506.394292567"/>
      <point x="69.7044671794" y="499.63429272"/>
      <point x="45.685190096" y="488.282900971" type="curve"/>
      <point x="45.685190096" y="457.003029981" type="line"/>
      <point x="75.6289594666" y="469.565813708"/>
      <point x="105.776468827" y="475.64981357"/>
      <point x="141.064238442" y="475.64981357" type="curve" smooth="yes"/>
      <point x="212.975109762" y="475.64981357"/>
      <point x="249.714443469" y="445.029718195"/>
      <point x="249.714443469" y="382.367223477" type="curve" smooth="yes"/>
      <point x="249.714443469" y="315.60546483"/>
      <point x="200.83554518" y="272.519929696"/>
      <point x="108.507920892" y="272.519929696" type="curve" smooth="yes"/>
      <point x="92.2995682435" y="272.519929696" type="line"/>
      <point x="92.2995682435" y="241.494234717" type="line"/>
      <point x="130.812441949" y="241.494234717" type="line" smooth="yes"/>
      <point x="223.721226251" y="241.494234717"/>
      <point x="265.630212199" y="198.479003579"/>
      <point x="265.630212199" y="130.619420972" type="curve" smooth="yes"/>
      <point x="265.630212199" y="59.6610544238"/>
      <point x="217.738617963" y="24.5901751381"/>
      <point x="141.645398456" y="24.5901751381" type="curve" smooth="yes"/>
      <point x="108.361628933" y="24.5901751381"/>
      <point x="71.4760032654" y="30.5335670091"/>
      <point x="37.3498857076" y="42.9557427442" type="curve"/>
      <point x="37.3498857076" y="11.6758717545" type="line"/>
      <point x="69.210815153" y="-0.210911987503"/>
      <point x="104.35362875" y="-6.15430385851"/>
      <point x="142.545862492" y="-6.15430385851" type="curve" smooth="yes"/>
      <point x="238.158710785" y="-6.15430385851"/>
      <point x="297.843845477" y="42.333823029"/>
    </contour>
  </outline>
</glyph>
<glyph name="four" format="1">
  <advance width="339.811615397"/>
  <unicode hex="0034"/>
  <outline>
    <contour>
      <point x="324.796310703" y="126.347101274" type="line"/>
      <point x="324.796310703" y="156.274972295" type="line"/>
      <point x="44.295081858" y="156.274972295" type="line"/>
      <point x="50.0752860978" y="145.588764605" type="line"/>
      <point x="222.621030049" y="500.239988708" type="line"/>
      <point x="189.303860716" y="500.239988708" type="line"/>
      <point x="16.9611887838" y="146.194460594" type="line"/>
      <point x="16.9611887838" y="126.347101274" type="line"/>
    </contour>
    <contour>
      <point x="259.158627679" y="0.0" type="line"/>
      <point x="259.158627679" y="331.239992523" type="line"/>
      <point x="233.800010681" y="331.239992523" type="line"/>
      <point x="228.36850245" y="156.274972295" type="line"/>
      <point x="228.36850245" y="0.0" type="line"/>
    </contour>
  </outline>
</glyph>
<glyph name="five" format="1">
  <advance width="339.811615397"/>
  <unicode hex="0035"/>
  <outline>
    <contour>
      <point x="303.739613749" y="136.562812843" type="curve" smooth="yes"/>
      <point x="303.739613749" y="228.666458733"/>
      <point x="244.229495031" y="274.845369683"/>
      <point x="127.241313733" y="281.886585513" type="curve" smooth="yes"/>
      <point x="71.1880951414" y="285.196281441" type="line"/>
      <point x="91.3750559872" y="265.949209987" type="line"/>
      <point x="106.390360681" y="484.4161812" type="line"/>
      <point x="92.4184721291" y="469.538773734" type="line"/>
      <point x="282.04430875" y="469.538773734" type="line"/>
      <point x="282.04430875" y="500.239988708" type="line"/>
      <point x="75.8033074707" y="500.239988708" type="line"/>
      <point x="60.3811907674" y="254.662714432" type="line"/>
      <point x="116.376293357" y="251.353018504" type="line" smooth="yes"/>
      <point x="224.244270264" y="245.058106654"/>
      <point x="271.525980471" y="210.592923357"/>
      <point x="271.525980471" y="135.394684887" type="curve" smooth="yes"/>
      <point x="271.525980471" y="62.0838383794"/>
      <point x="229.065226495" y="24.5901751381"/>
      <point x="148.93528279" y="24.5901751381" type="curve" smooth="yes"/>
      <point x="113.82186118" y="24.5901751381"/>
      <point x="76.3263514831" y="31.2095669938"/>
      <point x="43.4200019836" y="43.0963507358" type="curve"/>
      <point x="43.4200019836" y="11.8164797462" type="line"/>
      <point x="74.0611633707" y="-0.140607991669"/>
      <point x="110.423745026" y="-6.15430385851"/>
      <point x="149.225862797" y="-6.15430385851" type="curve" smooth="yes"/>
      <point x="248.323667261" y="-6.15430385851"/>
      <point x="303.739613749" y="43.5452150068"/>
    </contour>
  </outline>
</glyph>
<glyph name="six" format="1">
  <advance width="339.811615397"/>
  <unicode hex="0036"/>
  <outline>
    <contour>
      <point x="315.61865828" y="139.872508771" type="curve" smooth="yes"/>
      <point x="315.61865828" y="237.52476253"/>
      <point x="256.572799603" y="282.816761508"/>
      <point x="184.689984328" y="282.816761508" type="curve" smooth="yes"/>
      <point x="136.013490088" y="282.816761508"/>
      <point x="91.722416054" y="262.423193948"/>
      <point x="69.7946470497" y="228.509626692" type="curve"/>
      <point x="69.7946470497" y="190.805051786" type="line"/>
      <point x="93.3777201373" y="235.621146841"/>
      <point x="139.730242293" y="252.564410482"/>
      <point x="181.145576214" y="252.564410482" type="curve" smooth="yes"/>
      <point x="238.156706873" y="252.564410482"/>
      <point x="283.986185016" y="220.451707145"/>
      <point x="283.986185016" y="138.168988822" type="curve" smooth="yes"/>
      <point x="283.986185016" y="56.3513584959"/>
      <point x="241.206127018" y="24.2386551589"/>
      <point x="191.31053269" y="24.2386551589" type="curve" smooth="yes"/>
      <point x="128.519865763" y="24.2386551589"/>
      <point x="80.2508515032" y="66.4643182935"/>
      <point x="80.2508515032" y="231.646266854" type="curve" smooth="yes"/>
      <point x="80.2508515032" y="241.115674441" type="line" smooth="yes"/>
      <point x="80.2508515032" y="415.637238845"/>
      <point x="131.076301853" y="475.368597587"/>
      <point x="222.475406061" y="475.368597587" type="curve" smooth="yes"/>
      <point x="249.166683266" y="475.368597587"/>
      <point x="273.824568394" y="470.777205686"/>
      <point x="295.171845355" y="461.453813891" type="curve"/>
      <point x="295.171845355" y="493.014900864" type="line"/>
      <point x="274.231380403" y="502.408596654"/>
      <point x="248.149987227" y="506.394292567"/>
      <point x="223.346478111" y="506.394292567" type="curve" smooth="yes"/>
      <point x="111.324209062" y="506.394292567"/>
      <point x="47.7466382183" y="432.402038273"/>
      <point x="47.7466382183" y="233.641818711" type="curve" smooth="yes"/>
      <point x="47.7466382183" y="49.2614708416"/>
      <point x="109.755077024" y="-6.15430385851"/>
      <point x="190.584416658" y="-6.15430385851" type="curve" smooth="yes"/>
      <point x="259.622219749" y="-6.15430385851"/>
      <point x="315.61865828" y="40.6843830275"/>
    </contour>
  </outline>
</glyph>
<glyph name="seven" format="1">
  <advance width="339.811615397"/>
  <unicode hex="0037"/>
  <outline>
    <contour>
      <point x="113.883985005" y="0.0" type="line"/>
      <point x="298.191873515" y="480.392629389" type="line"/>
      <point x="298.191873515" y="500.239988708" type="line"/>
      <point x="26.8075092081" y="500.239988708" type="line"/>
      <point x="26.8075092081" y="468.835733776" type="line"/>
      <point x="271.585432414" y="468.835733776" type="line"/>
      <point x="266.239428257" y="480.998325377" type="line"/>
      <point x="80.7404957052" y="0.0" type="line"/>
    </contour>
  </outline>
</glyph>
<glyph name="eight" format="1">
  <advance width="339.811615397"/>
  <unicode hex="0038"/>
  <outline>
    <contour>
      <point x="310.129702018" y="122.902205156" type="curve" smooth="yes"/>
      <point x="310.129702018" y="195.445115511"/>
      <point x="276.177932464" y="233.933850619"/>
      <point x="179.869028096" y="266.690105844" type="curve" smooth="yes"/>
      <point x="98.4024163592" y="294.406105218"/>
      <point x="76.0685033159" y="324.885592602"/>
      <point x="76.0685033159" y="381.815607436" type="curve" smooth="yes"/>
      <point x="76.0685033159" y="440.211190257"/>
      <point x="108.857952842" y="476.634069512"/>
      <point x="169.267199654" y="476.634069512" type="curve" smooth="yes"/>
      <point x="230.111982491" y="476.634069512"/>
      <point x="265.950852163" y="442.309494207"/>
      <point x="265.950852163" y="379.857911477" type="curve" smooth="yes"/>
      <point x="265.950852163" y="322.251896659"/>
      <point x="242.048475053" y="289.576761355"/>
      <point x="185.211692399" y="261.21180197" type="curve"/>
      <point x="211.904973517" y="248.865338354" type="line"/>
      <point x="265.984251973" y="275.862073722"/>
      <point x="296.334165383" y="321.689464692"/>
      <point x="296.334165383" y="380.912471415" type="curve" smooth="yes"/>
      <point x="296.334165383" y="457.65198967"/>
      <point x="247.453263181" y="506.394292567"/>
      <point x="169.150967651" y="506.394292567" type="curve" smooth="yes"/>
      <point x="92.2421202128" y="506.394292567"/>
      <point x="43.3612180115" y="456.948949711"/>
      <point x="43.3612180115" y="380.788087472" type="curve" smooth="yes"/>
      <point x="43.3612180115" y="309.132089089"/>
      <point x="78.2134516012" y="267.30661808"/>
      <point x="171.414819822" y="236.113274812" type="curve" smooth="yes"/>
      <point x="252.910155575" y="208.889403409"/>
      <point x="277.538648716" y="181.762875975"/>
      <point x="277.538648716" y="120.452381227" type="curve" smooth="yes"/>
      <point x="277.538648716" y="59.3527984669"/>
      <point x="239.318358929" y="23.6059191964"/>
      <point x="173.623227875" y="23.6059191964" type="curve" smooth="yes"/>
      <point x="98.1118363523" y="23.6059191964"/>
      <point x="62.1567346778" y="60.7047984364"/>
      <point x="62.1567346778" y="125.324989112" type="curve" smooth="yes"/>
      <point x="62.1567346778" y="185.678267891"/>
      <point x="95.2654882261" y="230.169882941"/>
      <point x="150.185778776" y="248.676058539" type="curve"/>
      <point x="123.753685679" y="262.233914132" type="line"/>
      <point x="65.8407550436" y="240.10978665"/>
      <point x="29.6237973776" y="187.690043797"/>
      <point x="29.6237973776" y="124.129821183" type="curve" smooth="yes"/>
      <point x="29.6237973776" y="42.755647004"/>
      <point x="81.321655719" y="-6.15430385851"/>
      <point x="173.623227875" y="-6.15430385851" type="curve" smooth="yes"/>
      <point x="257.908799664" y="-6.15430385851"/>
      <point x="310.129702018" y="45.4596469429"/>
    </contour>
  </outline>
</glyph>
<glyph name="nine" format="1">
  <advance width="339.811615397"/>
  <unicode hex="0039"/>
  <outline>
    <contour>
      <point x="24.1929571167" y="360.367479938" type="curve" smooth="yes"/>
      <point x="24.1929571167" y="262.715226178"/>
      <point x="83.2388157938" y="217.423227201"/>
      <point x="155.121631069" y="217.423227201" type="curve" smooth="yes"/>
      <point x="203.798125309" y="217.423227201"/>
      <point x="248.089199343" y="237.816794761"/>
      <point x="270.016968347" y="271.730362016" type="curve"/>
      <point x="270.016968347" y="309.434936923" type="line"/>
      <point x="246.43389526" y="264.618841867"/>
      <point x="200.081373104" y="247.675578226"/>
      <point x="158.666039182" y="247.675578226" type="curve" smooth="yes"/>
      <point x="101.654908524" y="247.675578226"/>
      <point x="55.8254303809" y="279.788281563"/>
      <point x="55.8254303809" y="362.070999887" type="curve" smooth="yes"/>
      <point x="55.8254303809" y="443.888630213"/>
      <point x="98.6054883787" y="476.00133355"/>
      <point x="148.501082707" y="476.00133355" type="curve" smooth="yes"/>
      <point x="211.291749634" y="476.00133355"/>
      <point x="259.560763894" y="433.775670415"/>
      <point x="259.560763894" y="268.593721855" type="curve" smooth="yes"/>
      <point x="259.560763894" y="259.124314267" type="line" smooth="yes"/>
      <point x="259.560763894" y="84.6027498634"/>
      <point x="208.735313544" y="24.8713911214"/>
      <point x="117.336209336" y="24.8713911214" type="curve" smooth="yes"/>
      <point x="90.6449321309" y="24.8713911214"/>
      <point x="65.9870470032" y="29.4627830229"/>
      <point x="44.6397700419" y="38.7861748176" type="curve"/>
      <point x="44.6397700419" y="7.22508784465" type="line"/>
      <point x="65.5802349935" y="-2.16860794589"/>
      <point x="91.6616281697" y="-6.15430385851"/>
      <point x="116.465137286" y="-6.15430385851" type="curve" smooth="yes"/>
      <point x="228.487406335" y="-6.15430385851"/>
      <point x="292.064977179" y="67.8379504352"/>
      <point x="292.064977179" y="266.598169998" type="curve" smooth="yes"/>
      <point x="292.064977179" y="450.978517867"/>
      <point x="230.056538373" y="506.394292567"/>
      <point x="149.227198738" y="506.394292567" type="curve" smooth="yes"/>
      <point x="80.1893956482" y="506.394292567"/>
      <point x="24.1929571167" y="459.555605681"/>
    </contour>
  </outline>
</glyph>
<glyph name="A" format="1">
  <advance width="382.35987736"/>
  <unicode hex="0041"/>
  <outline>
    <contour>
      <point x="191.484880694" y="513.759988403" type="move" name="top"/>
    </contour>
    <contour>
      <point x="374.663848987" y="0.0" type="move" name="ogonek"/>
    </contour>
    <contour>
      <point x="191.484880694" y="0.0" type="move" name="bottom"/>
    </contour>
    <contour>
      <point x="40.6938936845" y="0.0" type="line"/>
      <point x="194.94111285" y="482.009621293" type="line"/>
      <point x="186.576416475" y="482.009621293" type="line"/>
      <point x="340.939867643" y="0.0" type="line"/>
      <point x="374.663848987" y="0.0" type="line"/>
      <point x="212.835497509" y="500.239988708" type="line"/>
      <point x="169.52437985" y="500.239988708" type="line"/>
      <point x="7.69602837325" y="0.0" type="line"/>
    </contour>
    <contour>
      <point x="300.137757605" y="171.996028355" type="line"/>
      <point x="291.946741264" y="203.584155302" type="line"/>
      <point x="90.3550200947" y="203.584155302" type="line"/>
      <point x="82.1640037537" y="171.996028355" type="line"/>
    </contour>
  </outline>
</glyph>
<glyph name="B" format="1">
  <advance width="366.64718065"/>
  <unicode hex="0042"/>
  <outline>
    <contour>
      <point x="189.887024642" y="500.239988708" type="move" name="top"/>
    </contour>
    <contour>
      <point x="189.887024642" y="0.0" type="move" name="bottom"/>
    </contour>
    <contour>
      <point x="344.545731612" y="132.804252966" type="curve" smooth="yes"/>
      <point x="344.545731612" y="202.713467378"/>
      <point x="308.066917954" y="251.261082336"/>
      <point x="229.621670318" y="260.795386118" type="curve"/>
      <point x="229.621670318" y="256.133690221" type="line"/>
      <point x="305.772337856" y="267.695993958"/>
      <point x="330.517730971" y="320.045432815"/>
      <point x="330.517730971" y="375.407127568" type="curve" smooth="yes"/>
      <point x="330.517730971" y="464.411989517"/>
      <point x="279.574712677" y="505.182900589"/>
      <point x="161.134299314" y="505.182900589" type="curve" smooth="yes"/>
      <point x="117.743021346" y="505.182900589"/>
      <point x="82.7444957967" y="500.845684697"/>
      <point x="52.56759445" y="494.945556849" type="curve"/>
      <point x="52.56759445" y="1.70351994865" type="line"/>
      <point x="84.7772199036" y="-2.02799995422"/>
      <point x="117.829861363" y="-3.73151990288"/>
      <point x="151.143022872" y="-3.73151990288" type="curve" smooth="yes"/>
      <point x="288.316829075" y="-3.73151990288"/>
      <point x="344.545731612" y="42.7286070304"/>
    </contour>
    <contour>
      <point x="84.5200397071" y="30.1117430341" type="curve"/>
      <point x="84.5200397071" y="468.705941709" type="line"/>
      <point x="107.26076476" y="472.621333626"/>
      <point x="130.437025838" y="474.579029584"/>
      <point x="161.832359302" y="474.579029584" type="curve" smooth="yes"/>
      <point x="261.53603997" y="474.579029584"/>
      <point x="298.420329696" y="445.846326171"/>
      <point x="298.420329696" y="374.422871626" type="curve" smooth="yes"/>
      <point x="298.420329696" y="309.732376955"/>
      <point x="267.692996263" y="272.519929696"/>
      <point x="165.752851497" y="272.519929696" type="curve" smooth="yes"/>
      <point x="78.7111114519" y="272.519929696" type="line"/>
      <point x="78.7111114519" y="241.494234717" type="line"/>
      <point x="178.706040098" y="241.494234717" type="line" smooth="yes"/>
      <point x="271.497924426" y="241.494234717"/>
      <point x="312.448330337" y="204.746875456"/>
      <point x="312.448330337" y="132.436508938" type="curve" smooth="yes"/>
      <point x="312.448330337" y="59.9855344294"/>
      <point x="269.784504342" y="26.872351102"/>
      <point x="155.007402978" y="26.872351102" type="curve" smooth="yes"/>
      <point x="131.773025899" y="26.872351102"/>
      <point x="107.493228766" y="27.5483510868"/>
    </contour>
  </outline>
</glyph>
<glyph name="C" format="1">
  <advance width="313.788338222"/>
  <unicode hex="0043"/>
  <outline>
    <contour>
      <point x="199.297809041" y="513.759988403" type="move" name="top"/>
    </contour>
    <contour>
      <point x="202.347229187" y="0.0" type="move" name="bottom"/>
    </contour>
    <contour>
      <point x="309.141062024" y="10.6753917642" type="curve"/>
      <point x="309.141062024" y="42.7989107039" type="line"/>
      <point x="275.421756476" y="30.9121269619"/>
      <point x="247.975639223" y="25.4338230881"/>
      <point x="216.783377779" y="25.4338230881" type="curve" smooth="yes"/>
      <point x="122.30546144" y="25.4338230881"/>
      <point x="65.323054797" y="74.9819180367"/>
      <point x="65.323054797" y="250.725690343" type="curve" smooth="yes"/>
      <point x="65.323054797" y="421.878070748"/>
      <point x="120.098389329" y="474.80616562"/>
      <point x="219.222913895" y="474.80616562" type="curve" smooth="yes"/>
      <point x="249.108567265" y="474.80616562"/>
      <point x="276.438452514" y="471.96155769"/>
      <point x="309.141062024" y="461.102293912" type="curve"/>
      <point x="309.141062024" y="493.225812851" type="line"/>
      <point x="280.475176713" y="501.802900665"/>
      <point x="249.630943306" y="506.394292567"/>
      <point x="220.616361987" y="506.394292567" type="curve" smooth="yes"/>
      <point x="101.071744598" y="506.394292567"/>
      <point x="31.453449465" y="438.994390155"/>
      <point x="31.453449465" y="249.373690374" type="curve" smooth="yes"/>
      <point x="31.453449465" y="56.627166678"/>
      <point x="102.552700677" y="-6.15430385851"/>
      <point x="215.707897768" y="-6.15430385851" type="curve" smooth="yes"/>
      <point x="251.053783384" y="-6.15430385851"/>
      <point x="283.147176835" y="1.14108798198"/>
    </contour>
  </outline>
</glyph>
<glyph name="D" format="1">
  <advance width="391.218225761"/>
  <unicode hex="0044"/>
  <outline>
    <contour>
      <point x="52.56759445" y="257.555994186" type="move" name="stroke"/>
    </contour>
    <contour>
      <point x="175.307923944" y="513.759988403" type="move" name="top"/>
    </contour>
    <contour>
      <point x="195.202300871" y="250.119994354" type="move" name="center"/>
    </contour>
    <contour>
      <point x="175.889083958" y="0.0" type="move" name="bottom"/>
    </contour>
    <contour>
      <point x="359.764776296" y="250.119994354" type="curve" smooth="yes"/>
      <point x="359.764776296" y="425.41490239"/>
      <point x="289.682221122" y="505.182900589"/>
      <point x="150.068878802" y="505.182900589" type="curve" smooth="yes"/>
      <point x="116.871281325" y="505.182900589"/>
      <point x="82.7444957967" y="500.845684697"/>
      <point x="52.56759445" y="495.551252838" type="curve"/>
      <point x="52.56759445" y="1.28169597365" type="line"/>
      <point x="87.7685240479" y="-2.23891194173"/>
      <point x="113.182585164" y="-3.73151990288"/>
      <point x="139.961370357" y="-3.73151990288" type="curve" smooth="yes"/>
      <point x="283.78645285" y="-3.73151990288"/>
      <point x="359.764776296" y="69.8389104158"/>
    </contour>
    <contour>
      <point x="84.6943877113" y="30.8147829924" type="curve"/>
      <point x="84.6943877113" y="468.60859774" type="line"/>
      <point x="106.737720748" y="471.847989672"/>
      <point x="129.913981826" y="473.80568563"/>
      <point x="150.243894777" y="473.80568563" type="curve" smooth="yes"/>
      <point x="270.916764413" y="473.80568563"/>
      <point x="326.185750971" y="408.579798966"/>
      <point x="326.185750971" y="250.119994354" type="curve" smooth="yes"/>
      <point x="326.185750971" y="88.7020137941"/>
      <point x="265.660272156" y="27.715999052"/>
      <point x="143.709518461" y="27.715999052" type="curve" smooth="yes"/>
      <point x="124.163837542" y="27.715999052"/>
      <point x="106.099112703" y="28.321695041"/>
    </contour>
  </outline>
</glyph>
<glyph name="E" format="1">
  <advance width="321.25257056"/>
  <unicode hex="0045"/>
  <outline>
    <contour>
      <point x="12.0240005493" y="500.239988708" type="move" name="topleft"/>
    </contour>
    <contour>
      <point x="186.866328512" y="513.759988403" type="move" name="top"/>
    </contour>
    <contour>
      <point x="282.479176804" y="0.0" type="move" name="ogonek"/>
    </contour>
    <contour>
      <point x="186.866328512" y="0.0" type="move" name="bottom"/>
    </contour>
    <contour>
      <point x="309.199178025" y="0.0" type="line"/>
      <point x="309.199178025" y="31.8693429299" type="line"/>
      <point x="84.5200397071" y="31.8693429299" type="line"/>
      <point x="84.5200397071" y="468.370645779" type="line"/>
      <point x="305.859177873" y="468.370645779" type="line"/>
      <point x="305.859177873" y="500.239988708" type="line"/>
      <point x="52.56759445" y="500.239988708" type="line"/>
      <point x="52.56759445" y="0.0" type="line"/>
    </contour>
    <contour>
      <point x="275.39236449" y="241.142714737" type="line"/>
      <point x="275.39236449" y="272.871449676" type="line"/>
      <point x="78.942239516" y="272.871449676" type="line"/>
      <point x="78.942239516" y="241.142714737" type="line"/>
    </contour>
  </outline>
</glyph>
<glyph name="F" format="1">
  <advance width="308.589293996"/>
  <unicode hex="0046"/>
  <outline>
    <contour>
      <point x="84.6943877113" y="0.0" type="line"/>
      <point x="84.6943877113" y="468.089429795" type="line"/>
      <point x="302.809757727" y="468.089429795" type="line"/>
      <point x="302.809757727" y="500.239988708" type="line"/>
      <point x="52.56759445" y="500.239988708" type="line"/>
      <point x="52.56759445" y="0.0" type="line"/>
    </contour>
    <contour>
      <point x="272.517292348" y="239.24450685" type="line"/>
      <point x="272.517292348" y="271.395065763" type="line"/>
      <point x="78.942239516" y="271.395065763" type="line"/>
      <point x="78.942239516" y="239.24450685" type="line"/>
    </contour>
  </outline>
</glyph>
<glyph name="G" format="1">
  <advance width="373.646484977"/>
  <unicode hex="0047"/>
  <outline>
    <contour>
      <point x="210.247665521" y="513.759988403" type="move" name="top"/>
    </contour>
    <contour>
      <point x="210.247665521" y="0.0" type="move" name="bottom"/>
    </contour>
    <contour>
      <point x="332.986659074" y="4.59139190152" type="curve"/>
      <point x="332.986659074" y="243.359994507" type="line"/>
      <point x="301.731605833" y="243.359994507" type="line"/>
      <point x="301.731605833" y="19.9879673116" type="line"/>
      <point x="311.869174235" y="34.1947829161" type="line"/>
      <point x="291.190565275" y="29.7439990063"/>
      <point x="269.437144275" y="27.7863030479"/>
      <point x="246.638303221" y="27.7863030479" type="curve" smooth="yes"/>
      <point x="125.52922959" y="27.7863030479"/>
      <point x="65.2068227942" y="80.7847019161"/>
      <point x="65.2068227942" y="249.303386378" type="curve" smooth="yes"/>
      <point x="65.2068227942" y="422.483766737"/>
      <point x="126.807113649" y="474.80616562"/>
      <point x="232.786654496" y="474.80616562" type="curve" smooth="yes"/>
      <point x="263.5146559" y="474.80616562"/>
      <point x="293.284077266" y="471.285557705"/>
      <point x="326.393498785" y="460.891381924" type="curve"/>
      <point x="326.393498785" y="493.014900864" type="line"/>
      <point x="297.437033467" y="501.73259667"/>
      <point x="264.327611948" y="506.394292567"/>
      <point x="233.279638552" y="506.394292567" type="curve" smooth="yes"/>
      <point x="107.954816923" y="506.394292567"/>
      <point x="31.453449465" y="440.205782133"/>
      <point x="31.453449465" y="249.514298365" type="curve" smooth="yes"/>
      <point x="31.453449465" y="62.1757745476"/>
      <point x="106.386352856" y="-3.73151990288"/>
      <point x="247.916855251" y="-3.73151990288" type="curve" smooth="yes"/>
      <point x="274.78248046" y="-3.73151990288"/>
      <point x="299.789729567" y="-1.49260796115"/>
    </contour>
  </outline>
</glyph>
<glyph name="H" format="1">
  <advance width="411.722486717"/>
  <unicode hex="0048"/>
  <outline>
    <contour>
      <point x="11.7915365438" y="500.239988708" type="move" name="topleft"/>
    </contour>
    <contour>
      <point x="205.890301359" y="513.759988403" type="move" name="top"/>
    </contour>
    <contour>
      <point x="205.890301359" y="387.429111178" type="move" name="center"/>
    </contour>
    <contour>
      <point x="205.890301359" y="0.0" type="move" name="bottom"/>
    </contour>
    <contour>
      <point x="84.6943877113" y="0.0" type="line"/>
      <point x="84.6943877113" y="240.720890762" type="line"/>
      <point x="327.028099005" y="240.720890762" type="line"/>
      <point x="327.028099005" y="0.0" type="line"/>
      <point x="359.154892267" y="0.0" type="line"/>
      <point x="359.154892267" y="500.239988708" type="line"/>
      <point x="327.028099005" y="500.239988708" type="line"/>
      <point x="327.028099005" y="273.293273651" type="line"/>
      <point x="84.6943877113" y="273.293273651" type="line"/>
      <point x="84.6943877113" y="500.239988708" type="line"/>
      <point x="52.56759445" y="500.239988708" type="line"/>
      <point x="52.56759445" y="0.0" type="line"/>
    </contour>
  </outline>
</glyph>
<glyph name="I" format="1">
  <advance width="137.261982161"/>
  <unicode hex="0049"/>
  <outline>
    <contour>
      <point x="68.6309910806" y="513.759988403" type="move" name="top"/>
    </contour>
    <contour>
      <point x="84.6362717099" y="0.0" type="move" name="ogonek"/>
    </contour>
    <contour>
      <point x="68.6309910806" y="0.0" type="move" name="bottom"/>
    </contour>
    <contour>
      <point x="84.6943877113" y="0.0" type="line"/>
      <point x="84.6943877113" y="500.239988708" type="line"/>
      <point x="52.56759445" y="500.239988708" type="line"/>
      <point x="52.56759445" y="0.0" type="line"/>
    </contour>
  </outline>
</glyph>
<glyph name="J" format="1">
  <advance width="137.261982161"/>
  <unicode hex="004A"/>
  <outline>
    <contour>
      <point x="68.6309910806" y="513.759988403" type="move" name="top"/>
    </contour>
    <contour>
      <point x="96.892068294" y="0.0" type="move" name="bottom"/>
    </contour>
    <contour>
      <point x="84.6943877113" y="88.8480299094" type="curve"/>
      <point x="84.6943877113" y="500.239988708" type="line"/>
      <point x="52.56759445" y="500.239988708" type="line"/>
      <point x="52.56759445" y="97.3710377763" type="line" smooth="yes"/>
      <point x="52.56759445" y="14.417727592"/>
      <point x="36.4487537008" y="-36.0443193024"/>
      <point x="-3.28255212193" y="-99.0691499237" type="curve"/>
      <point x="19.4033967832" y="-115.271517385" type="line"/>
      <point x="64.973690818" y="-45.8273909707"/>
      <point x="82.2548515947" y="9.19359972801"/>
    </contour>
  </outline>
</glyph>
<glyph name="K" format="1">
  <advance width="353.113500006"/>
  <unicode hex="004B"/>
  <outline>
    <contour>
      <point x="187.970532538" y="500.239988708" type="move" name="top"/>
    </contour>
    <contour>
      <point x="188.319228546" y="0.0" type="move" name="bottom"/>
    </contour>
    <contour>
      <point x="366.735356608" y="0.0" type="line"/>
      <point x="168.573815462" y="263.088378007" type="line"/>
      <point x="168.457583459" y="251.95330637" type="line"/>
      <point x="352.881703971" y="500.239988708" type="line"/>
      <point x="316.688794525" y="500.239988708" type="line"/>
      <point x="136.069602177" y="255.922778234" type="line"/>
      <point x="329.583867125" y="0.0" type="line"/>
    </contour>
    <contour>
      <point x="84.6943877113" y="0.0" type="line"/>
      <point x="84.6943877113" y="500.239988708" type="line"/>
      <point x="52.56759445" y="500.239988708" type="line"/>
      <point x="52.56759445" y="0.0" type="line"/>
    </contour>
    <contour>
      <point x="152.887170884" y="240.720890762" type="line"/>
      <point x="152.887170884" y="272.687577662" type="line"/>
      <point x="78.3042994423" y="272.687577662" type="line"/>
      <point x="78.3042994423" y="240.720890762" type="line"/>
    </contour>
  </outline>
</glyph>
<glyph name="L" format="1">
  <advance width="301.502481681"/>
  <unicode hex="004C"/>
  <outline>
    <contour>
      <point x="195.899692887" y="500.239988708" type="move" name="caronalt"/>
    </contour>
    <contour>
      <point x="68.8634550861" y="513.759988403" type="move" name="top"/>
    </contour>
    <contour>
      <point x="218.293057873" y="265.830233845" type="move" name="periodcentered"/>
    </contour>
    <contour>
      <point x="68.8634550861" y="264.424153928" type="move" name="slash"/>
    </contour>
    <contour>
      <point x="176.67198005" y="0.0" type="move" name="bottom"/>
    </contour>
    <contour>
      <point x="300.16648162" y="0.0" type="line"/>
      <point x="300.16648162" y="32.1505589133" type="line"/>
      <point x="84.6943877113" y="32.1505589133" type="line"/>
      <point x="84.6943877113" y="500.239988708" type="line"/>
      <point x="52.56759445" y="500.239988708" type="line"/>
      <point x="52.56759445" y="0.0" type="line"/>
    </contour>
  </outline>
</glyph>
<glyph name="M" format="1">
  <advance width="512.736783284"/>
  <unicode hex="004D"/>
  <outline>
    <contour>
      <point x="257.12389966" y="500.239988708" type="move" name="top"/>
    </contour>
    <contour>
      <point x="257.12389966" y="0.0" type="move" name="bottom"/>
    </contour>
    <contour>
      <point x="84.6649957252" y="0.0" type="line"/>
      <point x="84.6649957252" y="468.289525858" type="line"/>
      <point x="71.4205591469" y="468.289525858" type="line"/>
      <point x="240.363778984" y="68.3030384325" type="line"/>
      <point x="272.373004301" y="68.3030384325" type="line"/>
      <point x="440.299528099" y="468.289525858" type="line"/>
      <point x="428.071787559" y="468.289525858" type="line"/>
      <point x="428.071787559" y="0.0" type="line"/>
      <point x="458.833188773" y="0.0" type="line"/>
      <point x="458.833188773" y="500.239988708" type="line"/>
      <point x="421.593523332" y="500.239988708" type="line"/>
      <point x="251.866739433" y="92.4767973969" type="line"/>
      <point x="262.49662392" y="92.4767973969" type="line"/>
      <point x="91.1432599524" y="500.239988708" type="line"/>
      <point x="53.903594511" y="500.239988708" type="line"/>
      <point x="53.903594511" y="0.0" type="line"/>
    </contour>
  </outline>
</glyph>
<glyph name="N" format="1">
  <advance width="420.667675134"/>
  <unicode hex="004E"/>
  <outline>
    <contour>
      <point x="210.333837567" y="513.759988403" type="move" name="top"/>
    </contour>
    <contour>
      <point x="210.333837567" y="0.0" type="move" name="bottom"/>
    </contour>
    <contour>
      <point x="83.3289956642" y="0.0" type="line"/>
      <point x="83.3289956642" y="462.383990208" type="line"/>
      <point x="71.885487158" y="462.383990208" type="line"/>
      <point x="333.591867308" y="0.0" type="line"/>
      <point x="368.100080684" y="0.0" type="line"/>
      <point x="368.100080684" y="500.239988708" type="line"/>
      <point x="337.33867947" y="500.239988708" type="line"/>
      <point x="337.33867947" y="37.8559985008" type="line"/>
      <point x="348.782187976" y="37.8559985008" type="line"/>
      <point x="87.0758078264" y="500.239988708" type="line"/>
      <point x="52.56759445" y="500.239988708" type="line"/>
      <point x="52.56759445" y="0.0" type="line"/>
    </contour>
  </outline>
</glyph>
<glyph name="O" format="1">
  <advance width="395.517473921"/>
  <unicode hex="004F"/>
  <outline>
    <contour>
      <point x="12.8082325826" y="500.239988708" type="move" name="topleft"/>
    </contour>
    <contour>
      <point x="197.758736961" y="250.119994354" type="move" name="center"/>
    </contour>
    <contour>
      <point x="197.758736961" y="0.0" type="move" name="bottom"/>
    </contour>
    <contour>
      <point x="197.758736961" y="513.759988403" type="move" name="top"/>
    </contour>
    <contour>
      <point x="245.797291127" y="500.239988708" type="move" name="topright"/>
    </contour>
    <contour>
      <point x="246.029755133" y="0.0" type="move" name="ogonek"/>
    </contour>
    <contour>
      <point x="364.064024456" y="250.119994354" type="curve" smooth="yes"/>
      <point x="364.064024456" y="437.950646143"/>
      <point x="299.063613535" y="506.394292567"/>
      <point x="197.758736961" y="506.394292567" type="curve" smooth="yes"/>
      <point x="96.4538603861" y="506.394292567"/>
      <point x="31.453449465" y="437.950646143"/>
      <point x="31.453449465" y="250.119994354" type="curve" smooth="yes"/>
      <point x="31.453449465" y="62.2893425656"/>
      <point x="96.4538603861" y="-6.15430385851"/>
      <point x="197.758736961" y="-6.15430385851" type="curve" smooth="yes"/>
      <point x="299.063613535" y="-6.15430385851"/>
      <point x="364.064024456" y="62.2893425656"/>
    </contour>
    <contour>
      <point x="65.0324747901" y="251.612602315" type="curve" smooth="yes"/>
      <point x="65.0324747901" y="423.300374713"/>
      <point x="117.541953239" y="475.017077608"/>
      <point x="197.758736961" y="475.017077608" type="curve" smooth="yes"/>
      <point x="277.975520683" y="475.017077608"/>
      <point x="330.484999131" y="423.300374713"/>
      <point x="330.484999131" y="248.627386393" type="curve" smooth="yes"/>
      <point x="330.484999131" y="76.9396139951"/>
      <point x="277.975520683" y="25.2229111006"/>
      <point x="197.758736961" y="25.2229111006" type="curve" smooth="yes"/>
      <point x="117.541953239" y="25.2229111006"/>
      <point x="65.0324747901" y="76.9396139951"/>
    </contour>
  </outline>
</glyph>
<glyph name="P" format="1">
  <advance width="356.801528196"/>
  <unicode hex="0050"/>
  <outline>
    <contour>
      <point x="84.6943877113" y="0.0" type="line"/>
      <point x="84.6943877113" y="173.218236258" type="line"/>
      <point x="103.36899658" y="171.401148291"/>
      <point x="121.085025411" y="170.725148306"/>
      <point x="141.09563434" y="170.725148306" type="curve" smooth="yes"/>
      <point x="268.683640169" y="170.725148306"/>
      <point x="327.410194824" y="228.282490979"/>
      <point x="327.410194824" y="337.313176461" type="curve" smooth="yes"/>
      <point x="327.410194824" y="452.568469797"/>
      <point x="268.683640169" y="505.182900589"/>
      <point x="152.624646922" y="505.182900589" type="curve" smooth="yes"/>
      <point x="116.871281325" y="505.182900589"/>
      <point x="82.7444957967" y="500.845684697"/>
      <point x="52.56759445" y="495.551252838" type="curve"/>
      <point x="52.56759445" y="0.0" type="line"/>
    </contour>
    <contour>
      <point x="84.6943877113" y="204.990235218" type="curve"/>
      <point x="84.6943877113" y="469.030421715" type="line"/>
      <point x="106.795836749" y="472.269813647"/>
      <point x="129.390937813" y="474.157205609"/>
      <point x="153.728850948" y="474.157205609" type="curve" smooth="yes"/>
      <point x="249.628271423" y="474.157205609"/>
      <point x="294.412329513" y="432.861718469"/>
      <point x="294.412329513" y="335.961176491" type="curve" smooth="yes"/>
      <point x="294.412329513" y="244.511898414"/>
      <point x="246.578851278" y="201.750843286"/>
      <point x="143.04151843" y="201.750843286" type="curve" smooth="yes"/>
      <point x="122.9727935" y="201.750843286"/>
      <point x="103.862648606" y="202.426843271"/>
    </contour>
  </outline>
</glyph>
<glyph name="Q" format="1">
  <advance width="395.517473921"/>
  <unicode hex="0051"/>
  <outline>
    <contour>
      <point x="356.657908119" y="-35.7901432927" type="line"/>
      <point x="295.056949294" y="-29.4952314425"/>
      <point x="225.585614091" y="-16.4403197449"/>
      <point x="171.360043674" y="11.2324156072" type="curve"/>
      <point x="173.739459877" y="-1.22761602644" type="line"/>
      <point x="300.77703362" y="-19.3660475964"/>
      <point x="364.064024456" y="69.049342413"/>
      <point x="364.064024456" y="250.119994354" type="curve" smooth="yes"/>
      <point x="364.064024456" y="437.950646143"/>
      <point x="299.063613535" y="506.394292567"/>
      <point x="197.758736961" y="506.394292567" type="curve" smooth="yes"/>
      <point x="96.4538603861" y="506.394292567"/>
      <point x="31.453449465" y="437.950646143"/>
      <point x="31.453449465" y="250.119994354" type="curve" smooth="yes"/>
      <point x="31.453449465" y="39.1755510177"/>
      <point x="105.747744812" y="-33.5836791259"/>
      <point x="350.848311893" y="-66.9564462643" type="curve"/>
    </contour>
    <contour>
      <point x="65.0324747901" y="251.612602315" type="curve" smooth="yes"/>
      <point x="65.0324747901" y="423.300374713"/>
      <point x="117.541953239" y="475.017077608"/>
      <point x="197.758736961" y="475.017077608" type="curve" smooth="yes"/>
      <point x="277.975520683" y="475.017077608"/>
      <point x="330.484999131" y="423.300374713"/>
      <point x="330.484999131" y="248.627386393" type="curve" smooth="yes"/>
      <point x="330.484999131" y="76.9396139951"/>
      <point x="277.975520683" y="25.2229111006"/>
      <point x="197.758736961" y="25.2229111006" type="curve" smooth="yes"/>
      <point x="117.541953239" y="25.2229111006"/>
      <point x="65.0324747901" y="76.9396139951"/>
    </contour>
  </outline>
</glyph>
<glyph name="R" format="1">
  <advance width="379.164833225"/>
  <unicode hex="0052"/>
  <outline>
    <contour>
      <point x="178.473576092" y="513.759988403" type="move" name="top"/>
    </contour>
    <contour>
      <point x="201.562997154" y="0.0" type="move" name="bottom"/>
    </contour>
    <contour>
      <point x="84.5200397071" y="0.0" type="line"/>
      <point x="84.5200397071" y="216.990587301" type="line"/>
      <point x="100.203344431" y="215.779195323"/>
      <point x="115.65418515" y="215.103195338"/>
      <point x="140.776330318" y="215.103195338" type="curve" smooth="yes"/>
      <point x="263.049059918" y="215.103195338"/>
      <point x="327.90384685" y="264.759450181"/>
      <point x="326.684078792" y="362.227831927" type="curve" smooth="yes"/>
      <point x="326.684078792" y="457.019253707"/>
      <point x="271.791176316" y="505.182900589"/>
      <point x="158.287951188" y="505.182900589" type="curve" smooth="yes"/>
      <point x="116.871281325" y="505.182900589"/>
      <point x="83.964263855" y="500.845684697"/>
      <point x="52.56759445" y="495.551252838" type="curve"/>
      <point x="52.56759445" y="0.0" type="line"/>
    </contour>
    <contour>
      <point x="366.357268613" y="0.0" type="line"/>
      <point x="201.362597017" y="235.010042729" type="line"/>
      <point x="165.837687602" y="235.010042729" type="line"/>
      <point x="329.873779161" y="0.0" type="line"/>
    </contour>
    <contour>
      <point x="84.5200397071" y="247.2699783" type="curve"/>
      <point x="84.5200397071" y="468.776245705" type="line"/>
      <point x="108.625488836" y="472.621333626"/>
      <point x="129.739633821" y="474.579029584"/>
      <point x="158.085547139" y="474.579029584" type="curve" smooth="yes"/>
      <point x="255.727111715" y="474.579029584"/>
      <point x="295.196561546" y="437.874934346"/>
      <point x="295.196561546" y="361.622135938" type="curve" smooth="yes"/>
      <point x="295.196561546" y="282.129945598"/>
      <point x="248.408503365" y="245.241978346"/>
      <point x="138.946678231" y="245.241978346" type="curve" smooth="yes"/>
      <point x="119.923373354" y="245.241978346"/>
      <point x="106.302184723" y="245.91797833"/>
    </contour>
  </outline>
</glyph>
<glyph name="S" format="1">
  <advance width="294.590685341"/>
  <unicode hex="0053"/>
  <outline>
    <contour>
      <point x="149.74957478" y="513.759988403" type="move" name="top"/>
    </contour>
    <contour>
      <point x="149.74957478" y="0.0" type="move" name="bottom"/>
    </contour>
    <contour>
      <point x="273.273468337" y="129.900156965" type="curve" smooth="yes"/>
      <point x="273.273468337" y="200.793627318"/>
      <point x="238.101262754" y="242.451450362"/>
      <point x="157.389491064" y="268.534233784" type="curve" smooth="yes"/>
      <point x="81.3249955726" y="293.054105248"/>
      <point x="54.7218943254" y="317.125112764"/>
      <point x="54.7218943254" y="377.45135157" type="curve" smooth="yes"/>
      <point x="54.7218943254" y="439.594678343"/>
      <point x="91.6061840512" y="474.876469616"/>
      <point x="170.458911668" y="474.876469616" type="curve" smooth="yes"/>
      <point x="198.456796948" y="474.876469616"/>
      <point x="225.874190185" y="471.426165697"/>
      <point x="254.423843493" y="462.243381894" type="curve"/>
      <point x="254.423843493" y="494.296596837" type="line"/>
      <point x="231.246914445" y="502.267988663"/>
      <point x="197.556332912" y="506.394292567"/>
      <point x="170.5744757" y="506.394292567" type="curve" smooth="yes"/>
      <point x="72.8120033264" y="506.394292567"/>
      <point x="21.3172170045" y="456.992213734"/>
      <point x="21.3172170045" y="375.185399655" type="curve" smooth="yes"/>
      <point x="21.3172170045" y="302.150361329"/>
      <point x="58.4353066773" y="263.634586248"/>
      <point x="139.001454378" y="237.973626801" type="curve" smooth="yes"/>
      <point x="214.920993852" y="214.059451326"/>
      <point x="239.868791016" y="185.467355904"/>
      <point x="239.868791016" y="127.423293062" type="curve" smooth="yes"/>
      <point x="239.868791016" y="59.6880943974"/>
      <point x="200.486849172" y="25.3635190923"/>
      <point x="125.149137683" y="25.3635190923" type="curve" smooth="yes"/>
      <point x="94.3336282918" y="25.3635190923"/>
      <point x="61.8334228312" y="31.0527349535"/>
      <point x="26.9230732402" y="43.0801266872" type="curve"/>
      <point x="26.9230732402" y="11.0269117434" type="line"/>
      <point x="58.7258866842" y="-0.605695988907"/>
      <point x="94.8566723042" y="-6.15430385851"/>
      <point x="123.668181604" y="-6.15430385851" type="curve" smooth="yes"/>
      <point x="219.484101916" y="-6.15430385851"/>
      <point x="273.273468337" y="42.7826869776"/>
    </contour>
  </outline>
</glyph>
<glyph name="T" format="1">
  <advance width="333.305963096"/>
  <unicode hex="0054"/>
  <outline>
    <contour>
      <point x="166.682039549" y="513.759988403" type="move" name="top"/>
    </contour>
    <contour>
      <point x="166.682039549" y="266.884794105" type="move" name="center"/>
    </contour>
    <contour>
      <point x="166.682039549" y="0.0" type="move" name="bottom"/>
    </contour>
    <contour>
      <point x="182.745436179" y="0.0" type="line"/>
      <point x="182.745436179" y="468.089429795" type="line"/>
      <point x="330.750194977" y="468.089429795" type="line"/>
      <point x="330.750194977" y="500.239988708" type="line"/>
      <point x="2.55576811931" y="500.239988708" type="line"/>
      <point x="2.55576811931" y="468.089429795" type="line"/>
      <point x="150.560526917" y="468.089429795" type="line"/>
      <point x="150.560526917" y="0.0" type="line"/>
    </contour>
  </outline>
</glyph>
<glyph name="U" format="1">
  <advance width="403.967674371"/>
  <unicode hex="0055"/>
  <outline>
    <contour>
      <point x="202.434069204" y="513.759988403" type="move" name="top"/>
    </contour>
    <contour>
      <point x="245.739843097" y="0.0" type="move" name="ogonek"/>
    </contour>
    <contour>
      <point x="324.821694865" y="500.239988708" type="move" name="topright"/>
    </contour>
    <contour>
      <point x="202.434069204" y="0.0" type="move" name="bottom"/>
    </contour>
    <contour>
      <point x="354.130196045" y="170.233020013" type="curve" smooth="yes"/>
      <point x="354.130196045" y="500.239988708" type="line"/>
      <point x="322.845750818" y="500.239988708" type="line"/>
      <point x="322.845750818" y="165.65785216" type="line" smooth="yes"/>
      <point x="322.845750818" y="70.5473581755"/>
      <point x="288.371605223" y="25.3635190923"/>
      <point x="202.434069204" y="25.3635190923" type="curve" smooth="yes"/>
      <point x="116.496533185" y="25.3635190923"/>
      <point x="81.9642715878" y="70.5473581755"/>
      <point x="81.9642715878" y="165.65785216" type="curve" smooth="yes"/>
      <point x="81.9642715878" y="500.239988708" type="line"/>
      <point x="49.8374783265" y="500.239988708" type="line"/>
      <point x="49.8374783265" y="170.233020013" type="line" smooth="yes"/>
      <point x="49.8374783265" y="49.7698228611"/>
      <point x="95.8433083862" y="-6.15430385851"/>
      <point x="202.434069204" y="-6.15430385851" type="curve" smooth="yes"/>
      <point x="308.908598018" y="-6.15430385851"/>
      <point x="354.130196045" y="49.7698228611"/>
    </contour>
  </outline>
</glyph>
<glyph name="V" format="1">
  <advance width="372.02057288"/>
  <unicode hex="0056"/>
  <outline>
    <contour>
      <point x="209.059961332" y="0.0" type="line"/>
      <point x="369.494196747" y="500.239988708" type="line"/>
      <point x="337.280563469" y="500.239988708" type="line"/>
      <point x="183.062068319" y="17.3867194657" type="line"/>
      <point x="190.149548604" y="17.3867194657" type="line"/>
      <point x="36.7734014889" y="500.239988708" type="line"/>
      <point x="2.52637613326" y="500.239988708" type="line"/>
      <point x="162.960611548" y="0.0" type="line"/>
    </contour>
  </outline>
</glyph>
<glyph name="W" format="1">
  <advance width="600.506643274"/>
  <unicode hex="0057"/>
  <outline>
    <contour>
      <point x="300.863205666" y="513.759988403" type="move" name="top"/>
    </contour>
    <contour>
      <point x="300.863205666" y="0.0" type="move" name="bottom"/>
    </contour>
    <contour>
      <point x="185.330596285" y="0.0" type="line"/>
      <point x="304.494453796" y="475.255029569" type="line"/>
      <point x="297.319465523" y="475.255029569" type="line"/>
      <point x="415.176046989" y="0.0" type="line"/>
      <point x="458.602060709" y="0.0" type="line"/>
      <point x="582.703774426" y="500.239988708" type="line"/>
      <point x="551.332489183" y="500.239988708" type="line"/>
      <point x="432.662283697" y="16.9648954907" type="line"/>
      <point x="440.621504004" y="16.9648954907" type="line"/>
      <point x="321.457646492" y="500.239988708" type="line"/>
      <point x="280.47250483" y="500.239988708" type="line"/>
      <point x="160.727487305" y="16.9648954907" type="line"/>
      <point x="168.919171616" y="16.9648954907" type="line"/>
      <point x="51.2075461687" y="500.239988708" type="line"/>
      <point x="17.8028688477" y="500.239988708" type="line"/>
      <point x="141.904582564" y="0.0" type="line"/>
    </contour>
  </outline>
</glyph>
<glyph name="X" format="1">
  <advance width="365.602428566"/>
  <unicode hex="0058"/>
  <outline>
    <contour>
      <point x="357.064720129" y="0.0" type="line"/>
      <point x="201.595061023" y="253.878554231" type="line"/>
      <point x="182.772156282" y="283.833465225" type="line"/>
      <point x="49.4654020687" y="500.239988708" type="line"/>
      <point x="12.6332166077" y="500.239988708" type="line"/>
      <point x="163.949251542" y="253.808250235" type="line"/>
      <point x="182.772156282" y="223.45855524" type="line"/>
      <point x="319.796998643" y="0.0" type="line"/>
    </contour>
    <contour>
      <point x="45.0793138913" y="0.0" type="line"/>
      <point x="182.772156282" y="223.45855524" type="line"/>
      <point x="201.595061023" y="253.878554231" type="line"/>
      <point x="352.678631952" y="500.239988708" type="line"/>
      <point x="316.078910496" y="500.239988708" type="line"/>
      <point x="182.772156282" y="283.833465225" type="line"/>
      <point x="163.949251542" y="253.808250235" type="line"/>
      <point x="8.24712843028" y="0.0" type="line"/>
    </contour>
  </outline>
</glyph>
<glyph name="Y" format="1">
  <advance width="333.305963096"/>
  <unicode hex="0059"/>
  <outline>
    <contour>
      <point x="2.32263614306" y="500.239988708" type="move" name="topleft"/>
    </contour>
    <contour>
      <point x="166.74015555" y="513.759988403" type="move" name="top"/>
    </contour>
    <contour>
      <point x="166.682039549" y="0.0" type="move" name="bottom"/>
    </contour>
    <contour>
      <point x="182.745436179" y="0.0" type="line"/>
      <point x="182.745436179" y="241.483418469" type="line"/>
      <point x="175.541723891" y="213.626811426" type="line"/>
      <point x="339.492979345" y="500.239988708" type="line"/>
      <point x="305.391577979" y="500.239988708" type="line"/>
      <point x="161.308647318" y="249.844186172" type="line"/>
      <point x="172.752823795" y="249.844186172" type="line"/>
      <point x="26.8983570492" y="500.239988708" type="line"/>
      <point x="-8.80090037022" y="500.239988708" type="line"/>
      <point x="157.822355206" y="213.626811426" type="line"/>
      <point x="150.618642918" y="241.694330457" type="line"/>
      <point x="150.618642918" y="0.0" type="line"/>
    </contour>
  </outline>
</glyph>
<glyph name="Z" format="1">
  <advance width="322.007410608"/>
  <unicode hex="005A"/>
  <outline>
    <contour>
      <point x="160.756879291" y="513.759988403" type="move" name="top"/>
    </contour>
    <contour>
      <point x="160.524415285" y="0.0" type="move" name="bottom"/>
    </contour>
    <contour>
      <point x="303.390917741" y="0.0" type="line"/>
      <point x="303.390917741" y="31.5448629244" type="line"/>
      <point x="48.7406219783" y="31.5448629244" type="line"/>
      <point x="53.6196942114" y="21.350783206" type="line"/>
      <point x="300.050917588" y="480.392629389" type="line"/>
      <point x="300.050917588" y="500.239988708" type="line"/>
      <point x="20.7367249614" y="500.239988708" type="line"/>
      <point x="20.7367249614" y="468.695125784" type="line"/>
      <point x="268.707020419" y="468.695125784" type="line"/>
      <point x="263.827948185" y="478.889205502" type="line"/>
      <point x="17.3967248088" y="19.8473593199" type="line"/>
      <point x="17.3967248088" y="0.0" type="line"/>
    </contour>
  </outline>
</glyph>
<glyph name="a" format="1">
  <advance width="288.984829105"/>
  <unicode hex="0061"/>
  <outline>
    <contour>
      <point x="142.546530463" y="405.599990845" type="move" name="top"/>
    </contour>
    <contour>
      <point x="245.972307102" y="0.0" type="move" name="ogonek"/>
    </contour>
    <contour>
      <point x="143.766298521" y="0.0" type="move" name="bottom"/>
    </contour>
    <contour>
      <point x="213.061949778" y="40.88447909" type="curve"/>
      <point x="215.966413906" y="40.88447909" type="line"/>
      <point x="218.609690013" y="0.0" type="line"/>
      <point x="245.972307102" y="0.0" type="line"/>
      <point x="245.972307102" y="251.055578472" type="line" smooth="yes"/>
      <point x="245.972307102" y="341.493560312"/>
      <point x="205.804797284" y="371.221335592"/>
      <point x="131.945369991" y="371.221335592" type="curve" smooth="yes"/>
      <point x="104.411744751" y="371.221335592"/>
      <point x="69.5882351766" y="365.88363971"/>
      <point x="44.7266100586" y="356.560247916" type="curve"/>
      <point x="44.7266100586" y="325.280376926" type="line"/>
      <point x="74.6122634278" y="335.815160698"/>
      <point x="105.456496834" y="340.476856596"/>
      <point x="129.068961908" y="340.476856596" type="curve" smooth="yes"/>
      <point x="184.541688456" y="340.476856596"/>
      <point x="214.368557853" y="321.505593001"/>
      <point x="214.368557853" y="252.294010424" type="curve" smooth="yes"/>
      <point x="214.368557853" y="77.3560301688" type="line"/>
      <point x="189.8856887" y="36.7473589384"/>
      <point x="156.196443109" y="24.4225271728"/>
      <point x="127.444385752" y="24.4225271728" type="curve" smooth="yes"/>
      <point x="83.9676037086" y="24.4225271728"/>
      <point x="59.1941545488" y="46.6764467221"/>
      <point x="59.1941545488" y="95.4241577429" type="curve" smooth="yes"/>
      <point x="59.1941545488" y="140.072604833"/>
      <point x="84.0838357114" y="165.030524321"/>
      <point x="139.235922296" y="170.622396213" type="curve" smooth="yes"/>
      <point x="231.011110586" y="180.594748019" type="line"/>
      <point x="226.450674404" y="207.89433122" type="line"/>
      <point x="138.451022292" y="197.921979414" type="line" smooth="yes"/>
      <point x="61.629682841" y="189.950587589"/>
      <point x="25.7607532126" y="154.701244413"/>
      <point x="25.7607532126" y="91.3140778873" type="curve" smooth="yes"/>
      <point x="25.7607532126" y="28.7002553161"/>
      <point x="64.8534509909" y="-5.61891186543"/>
      <point x="121.488497567" y="-5.61891186543" type="curve" smooth="yes"/>
      <point x="159.215803298" y="-5.61891186543"/>
      <point x="191.599108785" y="9.57756780444"/>
    </contour>
  </outline>
</glyph>
<glyph name="o" format="1">
  <advance width="309.141062024"/>
  <unicode hex="006F"/>
  <outline>
    <contour>
      <point x="154.570531012" y="405.599990845" type="move" name="top"/>
    </contour>
    <contour>
      <point x="196.771432908" y="0.0" type="move" name="ogonek"/>
    </contour>
    <contour>
      <point x="189.333920673" y="365.743031719" type="move" name="topright"/>
    </contour>
    <contour>
      <point x="154.570531012" y="182.871515859" type="move" name="center"/>
    </contour>
    <contour>
      <point x="154.570531012" y="0.0" type="move" name="bottom"/>
    </contour>
    <contour>
      <point x="281.143844714" y="182.730907868" type="curve" smooth="yes"/>
      <point x="281.143844714" y="319.650648813"/>
      <point x="230.840102435" y="371.221335592"/>
      <point x="154.570531012" y="371.221335592" type="curve" smooth="yes"/>
      <point x="77.0811915304" y="371.221335592"/>
      <point x="27.9972173096" y="320.002168792"/>
      <point x="27.9972173096" y="182.590299876" type="curve" smooth="yes"/>
      <point x="27.9972173096" y="45.5299509388"/>
      <point x="78.3009595886" y="-6.22460785434"/>
      <point x="154.570531012" y="-6.22460785434" type="curve" smooth="yes"/>
      <point x="232.059870493" y="-6.22460785434"/>
      <point x="281.143844714" y="45.5299509388"/>
    </contour>
    <contour>
      <point x="61.4018946306" y="183.942299845" type="curve" smooth="yes"/>
      <point x="61.4018946306" y="306.390233252"/>
      <point x="97.8212563454" y="341.25020055"/>
      <point x="154.570531012" y="341.25020055" type="curve" smooth="yes"/>
      <point x="211.319805678" y="341.25020055"/>
      <point x="247.739167393" y="306.390233252"/>
      <point x="247.739167393" y="181.378907898" type="curve" smooth="yes"/>
      <point x="247.739167393" y="59.0715824835"/>
      <point x="211.436037681" y="23.7465271881"/>
      <point x="154.570531012" y="23.7465271881" type="curve" smooth="yes"/>
      <point x="97.7050243426" y="23.7465271881"/>
      <point x="61.4018946306" y="59.0715824835"/>
    </contour>
  </outline>
</glyph>
<glyph name="AE" format="1">
  <advance width="524.965191794"/>
  <unicode hex="00C6"/>
  <outline>
    <contour>
      <point x="268.625524168" y="513.759988403" type="move" name="top"/>
    </contour>
    <contour>
      <point x="287.531929071" y="0.0" type="move" name="bottom"/>
    </contour>
    <contour>
      <point x="40.8682416887" y="0.0" type="line"/>
      <point x="195.40537289" y="468.370645779" type="line"/>
      <point x="271.471872294" y="468.370645779" type="line"/>
      <point x="271.471872294" y="500.239988708" type="line"/>
      <point x="173.183684025" y="500.239988708" type="line"/>
      <point x="7.69602837325" y="0.0" type="line"/>
    </contour>
    <contour>
      <point x="279.109784666" y="171.996028355" type="line"/>
      <point x="279.109784666" y="203.584155302" type="line"/>
      <point x="90.9649041239" y="203.584155302" type="line"/>
      <point x="82.7738877828" y="171.996028355" type="line"/>
    </contour>
    <contour>
      <point x="512.911799259" y="0.0" type="line"/>
      <point x="512.911799259" y="31.8693429299" type="line"/>
      <point x="305.716893737" y="31.8693429299" type="line"/>
      <point x="285.386312815" y="468.370645779" type="line"/>
      <point x="509.571799107" y="468.370645779" type="line"/>
      <point x="509.571799107" y="500.239988708" type="line"/>
      <point x="252.649635524" y="500.239988708" type="line"/>
      <point x="275.304188531" y="0.0" type="line"/>
    </contour>
    <contour>
      <point x="479.104985724" y="241.142714737" type="line"/>
      <point x="479.104985724" y="272.871449676" type="line"/>
      <point x="286.256048923" y="272.871449676" type="line"/>
      <point x="286.256048923" y="241.142714737" type="line"/>
    </contour>
  </outline>
</glyph>
<glyph name="Thorn" format="1">
  <advance width="360.141528349"/>
  <unicode hex="00DE"/>
  <outline>
    <contour>
      <point x="84.6943877113" y="0.0" type="line"/>
      <point x="84.6943877113" y="92.1793580096" type="line"/>
      <point x="103.36899658" y="90.3622700428"/>
      <point x="121.143141412" y="89.6862700581"/>
      <point x="141.211866343" y="89.6862700581" type="curve" smooth="yes"/>
      <point x="268.74175617" y="89.6862700581"/>
      <point x="327.410194824" y="147.103004739"/>
      <point x="327.410194824" y="256.274298213" type="curve" smooth="yes"/>
      <point x="327.410194824" y="371.529591549"/>
      <point x="268.683640169" y="424.144022341"/>
      <point x="152.740878924" y="424.144022341" type="curve" smooth="yes"/>
      <point x="127.270705719" y="424.144022341"/>
      <point x="101.01630048" y="421.65093439"/>
      <point x="84.6943877113" y="419.228150434" type="curve"/>
      <point x="84.6943877113" y="500.239988708" type="line"/>
      <point x="52.56759445" y="500.239988708" type="line"/>
      <point x="52.56759445" y="0.0" type="line"/>
    </contour>
    <contour>
      <point x="84.6943877113" y="123.95135697" type="curve"/>
      <point x="84.6943877113" y="387.991543467" type="line"/>
      <point x="106.795836749" y="391.230935399"/>
      <point x="129.390937813" y="393.118327361"/>
      <point x="153.728850948" y="393.118327361" type="curve" smooth="yes"/>
      <point x="249.628271423" y="393.118327361"/>
      <point x="294.412329513" y="351.822840221"/>
      <point x="294.412329513" y="254.922298243" type="curve" smooth="yes"/>
      <point x="294.412329513" y="163.473020166"/>
      <point x="246.578851278" y="120.711965038"/>
      <point x="143.04151843" y="120.711965038" type="curve" smooth="yes"/>
      <point x="122.9727935" y="120.711965038"/>
      <point x="103.862648606" y="121.387965023"/>
    </contour>
  </outline>
</glyph>
<glyph name="OE" format="1">
  <advance width="559.757973441"/>
  <unicode hex="0152"/>
  <outline>
    <contour>
      <point x="315.094278326" y="513.759988403" type="move" name="top"/>
    </contour>
    <contour>
      <point x="315.094278326" y="0.0" type="move" name="bottom"/>
    </contour>
    <contour>
      <point x="320.38083054" y="0.0" type="curve" smooth="yes"/>
      <point x="547.704580906" y="0.0" type="line"/>
      <point x="547.704580906" y="31.8693429299" type="line"/>
      <point x="331.041442954" y="31.8693429299" type="line"/>
      <point x="331.041442954" y="468.370645779" type="line"/>
      <point x="544.364580753" y="468.370645779" type="line"/>
      <point x="544.364580753" y="500.239988708" type="line"/>
      <point x="318.551178452" y="500.239988708" type="line" smooth="yes"/>
      <point x="298.365553548" y="500.239988708"/>
      <point x="273.562044431" y="504.83138061"/>
      <point x="237.345086765" y="504.83138061" type="curve" smooth="yes"/>
      <point x="102.756440668" y="504.83138061"/>
      <point x="31.453449465" y="425.203990402"/>
      <point x="31.453449465" y="250.119994354" type="curve" smooth="yes"/>
      <point x="31.453449465" y="70.4716463784"/>
      <point x="107.199308905" y="-3.37999992371"/>
      <point x="245.302303159" y="-3.37999992371" type="curve" smooth="yes"/>
      <point x="279.689608738" y="-3.37999992371"/>
      <point x="299.585321606" y="0.0"/>
    </contour>
    <contour>
      <point x="65.0324747901" y="250.119994354" type="curve" smooth="yes"/>
      <point x="65.0324747901" y="408.157974991"/>
      <point x="120.068997343" y="473.383861655"/>
      <point x="236.414562773" y="473.383861655" type="curve" smooth="yes"/>
      <point x="256.57012772" y="473.383861655"/>
      <point x="277.684272705" y="472.172469677"/>
      <point x="299.088997697" y="469.073685737" type="curve"/>
      <point x="299.088997697" y="31.0959989758" type="line"/>
      <point x="280.733692851" y="28.6029110243"/>
      <point x="262.843316016" y="27.9972150354"/>
      <point x="243.123287093" y="27.9972150354" type="curve" smooth="yes"/>
      <point x="125.557953605" y="27.9972150354"/>
      <point x="65.0324747901" y="88.9832297774"/>
    </contour>
    <contour>
      <point x="513.89776737" y="241.142714737" type="line"/>
      <point x="513.89776737" y="272.871449676" type="line"/>
      <point x="325.463642763" y="272.871449676" type="line"/>
      <point x="325.463642763" y="241.142714737" type="line"/>
    </contour>
  </outline>
</glyph>
<glyph name="Ohorn" format="1">
  <advance width="395.517473921"/>
  <unicode hex="01A0"/>
  <outline>
    <contour>
      <point x="197.758736961" y="513.759988403" type="move" name="top"/>
    </contour>
    <contour>
      <point x="197.758736961" y="0.0" type="move" name="bottom"/>
    </contour>
    <contour>
      <point x="364.064024456" y="250.119994354" type="curve" smooth="yes"/>
      <point x="364.064024456" y="372.816695647"/>
      <point x="336.327327197" y="445.008086022"/>
      <point x="288.434397019" y="479.30021323" type="curve"/>
      <point x="283.641496832" y="472.853877463" type="line"/>
      <point x="330.082862917" y="472.853877463"/>
      <point x="364.64518447" y="499.893876853"/>
      <point x="364.64518447" y="550.91294759" type="curve" smooth="yes"/>
      <point x="364.64518447" y="571.192947133"/>
      <point x="362.089416351" y="584.599378809"/>
      <point x="356.745416107" y="600.28798645" type="curve"/>
      <point x="328.889814962" y="600.28798645" type="line"/>
      <point x="333.507699174" y="584.529074814"/>
      <point x="336.673351322" y="570.798163131"/>
      <point x="336.673351322" y="552.362291529" type="curve" smooth="yes"/>
      <point x="336.673351322" y="514.901076385"/>
      <point x="311.37685815" y="499.028596731"/>
      <point x="278.151204628" y="499.028596731" type="curve" smooth="yes"/>
      <point x="251.924855434" y="499.028596731"/>
      <point x="233.772622607" y="506.394292567"/>
      <point x="197.758736961" y="506.394292567" type="curve" smooth="yes"/>
      <point x="96.4538603861" y="506.394292567"/>
      <point x="31.453449465" y="437.950646143"/>
      <point x="31.453449465" y="250.119994354" type="curve" smooth="yes"/>
      <point x="31.453449465" y="62.2893425656"/>
      <point x="97.4992804402" y="-6.15430385851"/>
      <point x="197.758736961" y="-6.15430385851" type="curve" smooth="yes"/>
      <point x="298.018193481" y="-6.15430385851"/>
      <point x="364.064024456" y="62.2893425656"/>
    </contour>
    <contour>
      <point x="65.0324747901" y="251.612602315" type="curve" smooth="yes"/>
      <point x="65.0324747901" y="423.300374713"/>
      <point x="117.541953239" y="475.017077608"/>
      <point x="197.758736961" y="475.017077608" type="curve" smooth="yes"/>
      <point x="277.975520683" y="475.017077608"/>
      <point x="330.484999131" y="423.300374713"/>
      <point x="330.484999131" y="248.627386393" type="curve" smooth="yes"/>
      <point x="330.484999131" y="76.9396139951"/>
      <point x="277.975520683" y="25.2229111006"/>
      <point x="197.758736961" y="25.2229111006" type="curve" smooth="yes"/>
      <point x="117.541953239" y="25.2229111006"/>
      <point x="65.0324747901" y="76.9396139951"/>
    </contour>
  </outline>
</glyph>
<glyph name="Uhorn" format="1">
  <advance width="404.258254378"/>
  <unicode hex="01AF"/>
  <outline>
    <contour>
      <point x="202.317837201" y="513.759988403" type="move" name="top"/>
    </contour>
    <contour>
      <point x="202.317837201" y="0.0" type="move" name="bottom"/>
    </contour>
    <contour>
      <point x="415.091878855" y="600.28798645" type="curve"/>
      <point x="387.23627771" y="600.28798645" type="line"/>
      <point x="391.854161922" y="584.529074814"/>
      <point x="395.019814071" y="570.798163131"/>
      <point x="395.019814071" y="552.362291529" type="curve" smooth="yes"/>
      <point x="395.019814071" y="514.901076385"/>
      <point x="369.723320898" y="500.239988708"/>
      <point x="336.497667377" y="500.239988708" type="curve" smooth="yes"/>
      <point x="322.845750818" y="500.239988708" type="line"/>
      <point x="322.845750818" y="165.65785216" type="line" smooth="yes"/>
      <point x="322.845750818" y="70.5473581755"/>
      <point x="288.371605223" y="25.3635190923"/>
      <point x="202.434069204" y="25.3635190923" type="curve" smooth="yes"/>
      <point x="116.496533185" y="25.3635190923"/>
      <point x="81.9642715878" y="70.5473581755"/>
      <point x="81.9642715878" y="165.65785216" type="curve" smooth="yes"/>
      <point x="81.9642715878" y="500.239988708" type="line"/>
      <point x="49.8374783265" y="500.239988708" type="line"/>
      <point x="49.8374783265" y="170.233020013" type="line" smooth="yes"/>
      <point x="49.8374783265" y="49.7698228611"/>
      <point x="95.8433083862" y="-6.15430385851"/>
      <point x="202.434069204" y="-6.15430385851" type="curve" smooth="yes"/>
      <point x="308.908598018" y="-6.15430385851"/>
      <point x="354.130196045" y="49.7698228611"/>
      <point x="354.130196045" y="170.233020013" type="curve" smooth="yes"/>
      <point x="354.130196045" y="476.260917361" type="line"/>
      <point x="393.687153863" y="479.413781248"/>
      <point x="422.991647219" y="504.312212666"/>
      <point x="422.991647219" y="550.91294759" type="curve" smooth="yes"/>
      <point x="422.991647219" y="571.192947133"/>
      <point x="420.435879099" y="584.599378809"/>
    </contour>
  </outline>
</glyph>
<glyph name="Germandbls" format="1">
  <advance width="474.545217513"/>
  <outline>
    <contour>
      <point x="453.228000508" y="129.900156965" type="curve" smooth="yes"/>
      <point x="453.228000508" y="200.723323322"/>
      <point x="418.23014293" y="242.029626387"/>
      <point x="337.750835245" y="268.393625792" type="curve" smooth="yes"/>
      <point x="262.441847772" y="292.913497257"/>
      <point x="235.722514522" y="316.984504773"/>
      <point x="235.722514522" y="377.45135157" type="curve" smooth="yes"/>
      <point x="235.722514522" y="439.735286335"/>
      <point x="272.548688246" y="475.017077608"/>
      <point x="350.820255849" y="475.017077608" type="curve" smooth="yes"/>
      <point x="378.701909126" y="475.017077608"/>
      <point x="406.003070361" y="471.566773688"/>
      <point x="434.494607668" y="462.383989885" type="curve"/>
      <point x="434.494607668" y="494.296596837" type="line"/>
      <point x="411.37579462" y="502.267988663"/>
      <point x="377.80144509" y="506.394292567"/>
      <point x="350.993935882" y="506.394292567" type="curve" smooth="yes"/>
      <point x="253.69639152" y="506.394292567"/>
      <point x="202.434069204" y="456.992213734"/>
      <point x="202.434069204" y="375.185399655" type="curve" smooth="yes"/>
      <point x="202.434069204" y="302.220665325"/>
      <point x="239.377810872" y="263.915802231"/>
      <point x="319.711494568" y="238.114234793" type="curve" smooth="yes"/>
      <point x="394.933642025" y="214.200059317"/>
      <point x="419.93955519" y="185.607963896"/>
      <point x="419.93955519" y="127.423293062" type="curve" smooth="yes"/>
      <point x="419.93955519" y="59.5474864057"/>
      <point x="380.615729348" y="25.2229111006"/>
      <point x="305.801061871" y="25.2229111006" type="curve" smooth="yes"/>
      <point x="275.101784483" y="25.2229111006"/>
      <point x="242.775927026" y="30.9121269619"/>
      <point x="207.981809438" y="42.9395186955" type="curve"/>
      <point x="207.981809438" y="11.0269117434" type="line"/>
      <point x="239.668390879" y="-0.535391993073"/>
      <point x="275.624828495" y="-6.15430385851"/>
      <point x="304.320105792" y="-6.15430385851" type="curve" smooth="yes"/>
      <point x="399.671098093" y="-6.15430385851"/>
      <point x="453.228000508" y="42.7826869776"/>
    </contour>
    <contour>
      <point x="84.6943877113" y="0.0" type="line"/>
      <point x="84.6943877113" y="337.605208369" type="line" smooth="yes"/>
      <point x="84.6943877113" y="430.184758504"/>
      <point x="118.645489294" y="475.087381604"/>
      <point x="203.711285293" y="475.087381604" type="curve" smooth="yes"/>
      <point x="223.954358228" y="475.087381604"/>
      <point x="241.467315039" y="472.172469677"/>
      <point x="257.092503762" y="466.272341829" type="curve"/>
      <point x="284.134480888" y="489.440213001" type="line"/>
      <point x="262.903435929" y="500.353556727"/>
      <point x="235.63099871" y="506.394292567"/>
      <point x="203.711285293" y="506.394292567" type="curve" smooth="yes"/>
      <point x="98.1084964986" y="506.394292567"/>
      <point x="52.56759445" y="449.767125889"/>
      <point x="52.56759445" y="332.819128529" type="curve" smooth="yes"/>
      <point x="52.56759445" y="0.0" type="line"/>
    </contour>
  </outline>
</glyph>
<glyph name="Schwa" format="1">
  <advance width="395.371849933"/>
  <outline>
    <contour>
      <point x="198.252388987" y="512.353908487" type="move" name="top"/>
    </contour>
    <contour>
      <point x="198.252388987" y="0.0" type="move" name="bottom"/>
    </contour>
    <contour>
      <point x="363.918400468" y="249.416954396" type="curve" smooth="yes"/>
      <point x="363.918400468" y="438.248086175"/>
      <point x="292.877265257" y="506.394292567"/>
      <point x="163.050791418" y="506.394292567" type="curve" smooth="yes"/>
      <point x="124.684209672" y="506.394292567"/>
      <point x="88.5534240519" y="502.267988663"/>
      <point x="51.5228423666" y="492.803988876" type="curve"/>
      <point x="51.5228423666" y="460.891381924" type="line"/>
      <point x="87.5948440145" y="471.566773688"/>
      <point x="126.861889797" y="475.1576856"/>
      <point x="160.058819303" y="475.1576856" type="curve" smooth="yes"/>
      <point x="277.016272675" y="475.1576856"/>
      <point x="330.629955149" y="424.722678679"/>
      <point x="330.629955149" y="248.530042424" type="curve" smooth="yes"/>
      <point x="330.629955149" y="75.9553580534"/>
      <point x="278.585404712" y="24.9416951172"/>
      <point x="194.47685281" y="24.9416951172" type="curve" smooth="yes"/>
      <point x="110.019604899" y="24.9416951172"/>
      <point x="61.8087066403" y="76.3771820284"/>
      <point x="61.8087066403" y="249.135738413" type="curve"/>
      <point x="49.9570501829" y="236.059194865" type="line"/>
      <point x="343.178335653" y="236.059194865" type="line"/>
      <point x="343.178335653" y="266.381849887" type="line"/>
      <point x="28.1134493124" y="266.381849887" type="line"/>
      <point x="28.1134493124" y="249.416954396" type="line" smooth="yes"/>
      <point x="28.1134493124" y="63.2898225559"/>
      <point x="91.0811361266" y="-6.15430385851"/>
      <point x="194.418736808" y="-6.15430385851" type="curve" smooth="yes"/>
      <point x="297.407641481" y="-6.15430385851"/>
      <point x="363.918400468" y="62.7814705365"/>
    </contour>
  </outline>
</glyph>
<glyph name="slashcomb.case" format="1">
  <advance width="406.030458435"/>
  <outline>
    <contour>
      <point x="200.400009155" y="250.119994354" type="move" name="_center"/>
    </contour>
    <contour>
      <point x="361.796164461" y="493.566516906" type="line"/>
      <point x="340.389435557" y="507.264980491" type="line"/>
      <point x="39.0038538494" y="6.67347180295" type="line"/>
      <point x="60.4105827535" y="-7.02499178212" type="line"/>
    </contour>
  </outline>
</glyph>
<glyph name="slashcomb" format="1">
  <advance width="400.800018311"/>
  <outline>
    <contour>
      <point x="200.400009155" y="182.871515859" type="move" name="_center"/>
    </contour>
    <contour>
      <point x="125.294093701" y="38.9430071803" type="line"/>
      <point x="131.655457955" y="51.0190707375" type="line"/>
      <point x="289.447085234" y="302.290969321" type="line"/>
      <point x="296.854537512" y="313.101560953" type="line"/>
      <point x="325.694770827" y="359.069559916" type="line"/>
      <point x="304.346157924" y="372.768023501" type="line"/>
      <point x="275.505924609" y="326.800024538" type="line"/>
      <point x="269.144560356" y="314.723960981" type="line"/>
      <point x="111.352933077" y="63.4520623976" type="line"/>
      <point x="103.945480798" y="52.6414707654" type="line"/>
      <point x="75.1052474834" y="6.67347180295" type="line"/>
      <point x="96.4538603861" y="-7.02499178212" type="line"/>
    </contour>
  </outline>
</glyph>
<glyph name="slashshortcomb.case" format="1">
  <advance width="270.68697229"/>
  <outline>
    <contour>
      <point x="133.600006104" y="261.611994095" type="move" name="_slash"/>
    </contour>
    <contour>
      <point x="243.765234991" y="345.500888397" type="line"/>
      <point x="228.138710327" y="366.586679669" type="line"/>
      <point x="61.2502589052" y="210.890363067" type="line"/>
      <point x="76.8767835695" y="189.804571796" type="line"/>
    </contour>
  </outline>
</glyph>
<glyph name="slashshortcomb" format="1">
  <advance width="267.200012207"/>
  <outline>
    <contour>
      <point x="133.600006104" y="261.611994095" type="move" name="_slash"/>
    </contour>
    <contour>
      <point x="196.685260862" y="302.923705284" type="line"/>
      <point x="181.291200203" y="322.841368599" type="line"/>
      <point x="70.5147513451" y="220.300282906" type="line"/>
      <point x="85.9088120037" y="200.38261959" type="line"/>
    </contour>
  </outline>
</glyph>
<glyph name="strokelongcomb.case" format="1">
  <advance width="411.722486717"/>
  <outline>
    <contour>
      <point x="208.446069478" y="367.852151594" type="move" name="_center"/>
    </contour>
    <contour>
      <point x="415.498022894" y="354.54847201" type="line"/>
      <point x="415.498022894" y="381.155831177" type="line"/>
      <point x="1.33600006104" y="381.155831177" type="line"/>
      <point x="1.33600006104" y="354.54847201" type="line"/>
    </contour>
  </outline>
</glyph>
<glyph name="strokeshortcomb.D" format="1">
  <advance width="400.800018311"/>
  <outline>
    <contour>
      <point x="150.036814933" y="365.743031719" type="move" name="_stroke"/>
    </contour>
    <contour>
      <point x="279.341580701" y="352.087832156" type="line"/>
      <point x="279.341580701" y="379.398231281" type="line"/>
      <point x="96.2494524252" y="379.398231281" type="line"/>
      <point x="96.2494524252" y="352.087832156" type="line"/>
    </contour>
  </outline>
</glyph>
<glyph name="strokeshortcomb.case" format="1">
  <advance width="276.498572428"/>
  <outline>
    <contour>
      <point x="137.6681262" y="365.03999176" type="move" name="_center"/>
    </contour>
    <contour>
      <point x="251.694395341" y="351.384792197" type="line"/>
      <point x="251.694395341" y="378.695191323" type="line"/>
      <point x="23.6418570597" y="378.695191323" type="line"/>
      <point x="23.6418570597" y="351.384792197" type="line"/>
    </contour>
  </outline>
</glyph>
<glyph name="strokeshortcomb.d" format="1">
  <advance width="400.800018311"/>
  <outline>
    <contour>
      <point x="200.400009155" y="365.743031719" type="move" name="_stroke"/>
    </contour>
    <contour>
      <point x="244.74853122" y="352.087832156" type="line"/>
      <point x="244.74853122" y="379.398231281" type="line"/>
      <point x="70.2816193688" y="379.398231281" type="line"/>
      <point x="70.2816193688" y="352.087832156" type="line"/>
    </contour>
  </outline>
</glyph>
<glyph name="strokeshortcomb.h" format="1">
  <advance width="400.800018311"/>
  <outline>
    <contour>
      <point x="200.400009155" y="365.743031719" type="move" name="_stroke"/>
    </contour>
    <contour>
      <point x="330.518398942" y="352.087832156" type="line"/>
      <point x="330.518398942" y="379.398231281" type="line"/>
      <point x="156.051487091" y="379.398231281" type="line"/>
      <point x="156.051487091" y="352.087832156" type="line"/>
    </contour>
  </outline>
</glyph>
<glyph name="strokeshortcomb.t" format="1">
  <advance width="400.800018311"/>
  <outline>
    <contour>
      <point x="200.400009155" y="365.743031719" type="move" name="_stroke"/>
    </contour>
    <contour>
      <point x="317.158398331" y="352.087832156" type="line"/>
      <point x="317.158398331" y="379.398231281" type="line"/>
      <point x="155.470327077" y="379.398231281" type="line"/>
      <point x="155.470327077" y="352.087832156" type="line"/>
    </contour>
  </outline>
</glyph>
